<svg width="24" height="24" viewBox="0 0 24 24" fill="none" xmlns="http://www.w3.org/2000/svg">
<circle cx="12" cy="12" r="11.5" fill="white" stroke="black"/>
<mask id="mask0" mask-type="alpha" maskUnits="userSpaceOnUse" x="0" y="0" width="24" height="24">
<circle cx="12" cy="12" r="12" fill="#F7931A"/>
</mask>
<g mask="url(#mask0)">
<rect y="10.5" width="24" height="3" fill="#2DD6A0"/>
<rect x="-0.25" y="8.25" width="24.5" height="2.5" fill="#62DDF9" stroke="black" stroke-width="0.5"/>
<rect x="-0.25" y="13.25" width="24.5" height="2.5" fill="#BF88FF" stroke="black" stroke-width="0.5"/>
</g>
<circle cx="12" cy="12" r="8.75" fill="#F7931A" stroke="black" stroke-width="0.5"/>
<path d="M15.9842 10.7116C16.1634 9.51378 15.2514 8.86989 14.0044 8.44036L14.4089 6.81778L13.4212 6.57167L13.0274 8.15152C12.7678 8.08676 12.5011 8.02574 12.2361 7.96524L12.6327 6.37496L11.6456 6.12885L11.2409 7.7509C11.026 7.70197 10.8149 7.65362 10.6102 7.60267L10.6113 7.59757L9.24925 7.25743L8.98651 8.31237C8.98651 8.31237 9.71931 8.48035 9.70387 8.49069C10.1038 8.59052 10.1762 8.85529 10.1642 9.06515L9.70334 10.9136C9.73088 10.9206 9.7666 10.9308 9.80602 10.9466C9.77307 10.9384 9.73801 10.9295 9.70162 10.9208L9.05571 13.5103C9.00683 13.6318 8.88276 13.8141 8.60313 13.7449C8.61302 13.7592 7.88524 13.5657 7.88524 13.5657L7.39486 14.6963L8.68021 15.0168C8.91933 15.0767 9.15365 15.1395 9.38441 15.1985L8.97569 16.8397L9.96225 17.0858L10.367 15.462C10.6365 15.5352 10.8981 15.6027 11.1542 15.6663L10.7508 17.2824L11.7385 17.5285L12.1472 15.8904C13.8315 16.2092 15.0979 16.0806 15.6309 14.5572C16.0605 13.3307 15.6096 12.6232 14.7235 12.1619C15.3689 12.0131 15.855 11.5886 15.9846 10.7117L15.9843 10.7115L15.9842 10.7116ZM13.7275 13.8761C13.4223 15.1026 11.3572 14.4396 10.6877 14.2733L11.23 12.099C11.8995 12.2662 14.0465 12.5969 13.7276 13.8761H13.7275ZM14.033 10.6938C13.7545 11.8095 12.0357 11.2427 11.4782 11.1037L11.9699 9.13176C12.5275 9.27074 14.3231 9.53014 14.0331 10.6938H14.033Z" fill="white"/>
<circle cx="12" cy="12" r="11.5" stroke="black"/>
</svg>
